<svg width="111" height="32" viewBox="0 0 111 32" fill="none" xmlns="http://www.w3.org/2000/svg">
<g clip-path="url(#clip0_1642_812)">
<path d="M3.99979 0C1.79037 0 0 1.79106 0 4.00012V28.0002C0 30.2093 1.79037 32 3.99979 32H27.9999C30.2089 32 32 30.2093 32 28.0002V4.00012C32 1.79106 30.2089 0 27.9999 0H3.99979ZM15.9015 4.26479C16.0492 4.25111 16.1982 4.26841 16.3389 4.31558C16.4796 4.36275 16.6088 4.43876 16.7185 4.53873C16.8281 4.63871 16.9157 4.76047 16.9756 4.89621C17.0355 5.03196 17.0665 5.17871 17.0664 5.3271V20.7936C17.0636 21.0746 16.9499 21.3431 16.7502 21.5408C16.5505 21.7385 16.2808 21.8493 15.9998 21.8493C15.7188 21.8493 15.4492 21.7385 15.2495 21.5408C15.0498 21.3431 14.9361 21.0746 14.9332 20.7936V5.3271C14.9332 5.06121 15.0324 4.80489 15.2115 4.60837C15.3907 4.41186 15.6367 4.28933 15.9015 4.26479ZM10.6664 4.80009C10.8065 4.80005 10.9453 4.82761 11.0747 4.88119C11.2042 4.93478 11.3218 5.01334 11.4209 5.11239C11.5199 5.21143 11.5985 5.32903 11.6522 5.45845C11.7058 5.58788 11.7334 5.7266 11.7334 5.8667V20.1166C11.7334 20.3995 11.621 20.6708 11.4209 20.8709C11.2209 21.0709 10.9495 21.1833 10.6666 21.1833C10.3837 21.1833 10.1123 21.0709 9.91229 20.8709C9.71223 20.6708 9.59984 20.3995 9.59984 20.1166V5.8667C9.59985 5.58382 9.71223 5.31253 9.91226 5.1125C10.1123 4.91248 10.3836 4.8001 10.6664 4.80009ZM21.3332 4.80009C21.6161 4.8001 21.8874 4.91248 22.0874 5.1125C22.2874 5.31253 22.3998 5.58382 22.3998 5.8667V20.1166C22.3969 20.3975 22.2833 20.666 22.0836 20.8637C21.8839 21.0614 21.6142 21.1722 21.3332 21.1722C21.0522 21.1722 20.7826 21.0614 20.5829 20.8637C20.3832 20.666 20.2695 20.3975 20.2666 20.1166V5.8667C20.2666 5.58382 20.379 5.31253 20.579 5.1125C20.7791 4.91248 21.0503 4.8001 21.3332 4.80009ZM5.25356 6.93629C5.39994 6.92531 5.54702 6.94466 5.68558 6.99314C5.82413 7.04162 5.9512 7.11817 6.05881 7.21801C6.16642 7.31785 6.25227 7.43882 6.31098 7.57337C6.36969 7.70791 6.39999 7.85312 6.4 7.99992V17.5938C6.4 17.8767 6.28761 18.1481 6.08755 18.3481C5.88749 18.5482 5.61615 18.6606 5.33322 18.6606C5.0503 18.6606 4.77896 18.5482 4.5789 18.3481C4.37884 18.1481 4.26645 17.8767 4.26645 17.5938V7.99992C4.26646 7.7308 4.3682 7.47164 4.55127 7.27438C4.73433 7.07713 4.98519 6.95636 5.25356 6.93629ZM26.5868 6.93629C26.7332 6.92531 26.8802 6.94466 27.0188 6.99314C27.1574 7.04162 27.2844 7.11817 27.392 7.21801C27.4996 7.31785 27.5855 7.43882 27.6442 7.57337C27.7029 7.70791 27.7332 7.85312 27.7332 7.99992V17.5938C27.7303 17.8748 27.6167 18.1433 27.417 18.341C27.2173 18.5387 26.9476 18.6495 26.6666 18.6495C26.3856 18.6495 26.1159 18.5387 25.9162 18.341C25.7165 18.1433 25.6029 17.8748 25.6 17.5938V7.99992C25.6 7.73086 25.7017 7.47174 25.8847 7.27449C26.0677 7.07724 26.3185 6.95644 26.5868 6.93629ZM26.5808 22.3972C26.8054 22.3792 27.0298 22.4327 27.2221 22.55C27.4143 22.6674 27.5645 22.8426 27.6511 23.0506C27.7376 23.2585 27.7562 23.4885 27.704 23.7077C27.6518 23.9268 27.5316 24.1238 27.3606 24.2704C27.196 24.4115 23.2447 27.7269 15.9998 27.7269C8.75504 27.7269 4.8034 24.4112 4.63878 24.27C4.42553 24.0857 4.2939 23.8245 4.27266 23.5434C4.25141 23.2624 4.34227 22.9843 4.52539 22.7701C4.7085 22.5558 4.96899 22.4227 5.24992 22.3999C5.53086 22.3771 5.80941 22.4664 6.02471 22.6483C6.08729 22.7005 9.61584 25.5937 15.9998 25.5937C22.4639 25.5937 25.9378 22.6798 25.9723 22.6503C26.1434 22.5038 26.3564 22.4152 26.5808 22.3972Z" fill="white"/>
</g>
<path d="M41.04 11.77H42.73V21H41.04V11.77ZM44.7658 11.77H46.7418L50.7198 18.712V11.77H52.4098V21H50.3818L46.4558 14.253V21H44.7658V11.77ZM56.8564 13.239H54.0614V11.77H61.3544V13.239H58.5464V21H56.8564V13.239ZM62.9958 11.77H69.2098V13.239H64.6858V15.644H69.0538V17.1H64.6858V19.531H69.3138V21H62.9958V11.77ZM71.2538 11.77H75.1148C75.7735 11.77 76.3455 11.8827 76.8308 12.108C77.3248 12.3333 77.7062 12.6583 77.9748 13.083C78.2435 13.499 78.3778 13.9843 78.3778 14.539C78.3778 14.955 78.2868 15.3277 78.1048 15.657C77.9228 15.9863 77.6758 16.255 77.3638 16.463C77.0605 16.6623 76.7225 16.7837 76.3498 16.827L76.2848 16.697C76.8828 16.697 77.3422 16.8313 77.6628 17.1C77.9835 17.3687 78.1698 17.7803 78.2218 18.335L78.4558 21H76.7398L76.5448 18.582C76.5188 18.2093 76.3975 17.9407 76.1808 17.776C75.9728 17.6027 75.6305 17.516 75.1538 17.516H72.9438V21H71.2538V11.77ZM75.0108 16.034C75.5135 16.034 75.9078 15.9127 76.1938 15.67C76.4885 15.4273 76.6358 15.085 76.6358 14.643C76.6358 14.1923 76.4885 13.8457 76.1938 13.603C75.8992 13.3603 75.4788 13.239 74.9328 13.239H72.9438V16.034H75.0108ZM84.0696 21.208C83.2289 21.208 82.4879 21.0173 81.8466 20.636C81.2053 20.246 80.7026 19.687 80.3386 18.959C79.9746 18.231 79.7926 17.3773 79.7926 16.398C79.7926 15.4273 79.9703 14.578 80.3256 13.85C80.6809 13.1133 81.1793 12.55 81.8206 12.16C82.4706 11.7613 83.2289 11.562 84.0956 11.562C85.2396 11.562 86.1409 11.848 86.7996 12.42C87.4669 12.992 87.9003 13.8153 88.0996 14.89L86.3316 14.981C86.2189 14.3657 85.9719 13.889 85.5906 13.551C85.2179 13.2043 84.7196 13.031 84.0956 13.031C83.5756 13.031 83.1206 13.1697 82.7306 13.447C82.3493 13.7157 82.0546 14.1057 81.8466 14.617C81.6473 15.1197 81.5476 15.7133 81.5476 16.398C81.5476 17.0827 81.6516 17.6763 81.8596 18.179C82.0676 18.6817 82.3623 19.0673 82.7436 19.336C83.1249 19.6047 83.5713 19.739 84.0826 19.739C84.7499 19.739 85.2743 19.557 85.6556 19.193C86.0369 18.8203 86.2796 18.296 86.3836 17.62L88.1516 17.711C87.9696 18.8203 87.5276 19.6827 86.8256 20.298C86.1323 20.9047 85.2136 21.208 84.0696 21.208ZM93.8795 21.208C92.9695 21.208 92.1852 21.0173 91.5265 20.636C90.8679 20.246 90.3609 19.6913 90.0055 18.972C89.6502 18.244 89.4725 17.386 89.4725 16.398C89.4725 15.41 89.6502 14.552 90.0055 13.824C90.3609 13.096 90.8679 12.537 91.5265 12.147C92.1852 11.757 92.9695 11.562 93.8795 11.562C94.7895 11.562 95.5739 11.757 96.2325 12.147C96.8999 12.537 97.4069 13.096 97.7535 13.824C98.1089 14.552 98.2865 15.41 98.2865 16.398C98.2865 17.386 98.1089 18.244 97.7535 18.972C97.4069 19.6913 96.8999 20.246 96.2325 20.636C95.5739 21.0173 94.7895 21.208 93.8795 21.208ZM93.8795 19.739C94.4342 19.739 94.9109 19.609 95.3095 19.349C95.7082 19.0803 96.0115 18.6947 96.2195 18.192C96.4275 17.6893 96.5315 17.0913 96.5315 16.398C96.5315 15.696 96.4275 15.0937 96.2195 14.591C96.0115 14.0883 95.7082 13.7027 95.3095 13.434C94.9109 13.1653 94.4342 13.031 93.8795 13.031C93.3249 13.031 92.8482 13.1653 92.4495 13.434C92.0595 13.7027 91.7562 14.0883 91.5395 14.591C91.3315 15.0937 91.2275 15.696 91.2275 16.398C91.2275 17.0913 91.3315 17.6893 91.5395 18.192C91.7562 18.6947 92.0595 19.0803 92.4495 19.349C92.8482 19.609 93.3249 19.739 93.8795 19.739ZM99.862 11.77H102.137L104.685 18.92L107.233 11.77H109.508V21H107.818V14.63L105.491 20.987H103.879L101.552 14.63V21H99.862V11.77Z" fill="white"/>
<defs>
<clipPath id="clip0_1642_812">
<rect width="32" height="32" fill="white"/>
</clipPath>
</defs>
</svg>
