<svg width="87" height="28" viewBox="0 0 87 28" fill="none" xmlns="http://www.w3.org/2000/svg">
<path d="M7.54847 23.2169C2.60182 23.2169 -0.0222683 20.8723 0.000142356 15.1556L4.85036 15.161C4.9468 18.3262 5.81402 19.3968 7.77326 19.3968C9.26663 19.3968 10.0856 18.5817 10.0856 17.3509C10.0856 16.0404 9.28293 15.1928 7.03439 13.8985L4.78585 12.6197C2.50539 11.3091 0.337661 9.72621 0.369579 6.12982C0.385878 2.3097 3.08399 0.00830078 7.45204 0.00830078C12.286 0.00830078 14.7817 2.38607 14.6567 7.61947L10.1182 7.61677C10.0863 4.85171 9.24014 3.77232 7.37734 3.77232C6.09246 3.77232 5.2361 4.56378 5.2361 5.65129C5.2361 6.73879 5.75018 7.45726 8.159 8.78403L10.4395 10.0466C12.7199 11.3254 15.145 12.7637 15.145 16.6797C15.145 20.7878 12.3186 23.2169 7.54847 23.2169Z" fill="white"/>
<path d="M24.7083 0C19.2639 0 16.5977 3.16451 16.5977 9.59017V13.6502C16.5977 20.0597 19.2639 23.2249 24.7083 23.2249C30.1527 23.2249 32.8189 20.0604 32.8189 13.6502V9.59017C32.8189 3.16451 30.1364 0 24.7083 0ZM27.5993 14.9696C27.5993 17.9867 26.6519 19.4453 24.7083 19.4453C22.7647 19.4453 21.8017 17.9867 21.8017 14.9696V8.45468C21.8017 5.28882 22.7491 3.76334 24.7083 3.76334C26.6675 3.76334 27.5993 5.28815 27.5993 8.45468V14.9696Z" fill="white"/>
<path d="M42.3684 0C36.924 0 34.2578 3.16451 34.2578 9.59017V13.6502C34.2578 20.0597 36.924 23.2249 42.3684 23.2249C47.8129 23.2249 50.4791 20.0604 50.4791 13.6502V9.59017C50.4791 3.16451 47.7973 0 42.3684 0ZM45.2594 14.9696C45.2594 17.9867 44.3121 19.4453 42.3684 19.4453C40.4248 19.4453 39.4618 17.9867 39.4618 14.9696V8.45468C39.4618 5.28882 40.4092 3.76334 42.3684 3.76334C44.3277 3.76334 45.2594 5.28815 45.2594 8.45468V14.9696Z" fill="white"/>
<path d="M57.3249 22.8094L52.3301 22.7905V0.391602H58.1548L64.0387 14.3014L64.3585 14.2338V0.391602H69.3398V22.7905H63.382L57.6312 8.899L57.308 8.96659L57.3249 22.8094Z" fill="white"/>
<path d="M87.0006 24.2412H70.7793V27.9998H87.0006V24.2412Z" fill="white"/>
</svg>
