<svg width="81" height="38" viewBox="0 0 81 38" fill="none" xmlns="http://www.w3.org/2000/svg">
<path d="M78.0859 31.7656C79.6957 31.7659 81 33.0588 81 34.6543C80.9998 36.2496 79.6955 37.5427 78.0859 37.543C76.4761 37.543 75.1711 36.2498 75.1709 34.6543C75.1709 33.0586 76.476 31.7656 78.0859 31.7656ZM49.7734 20.9053C54.5609 20.9055 58.4424 24.6239 58.4424 29.21C58.4423 33.7959 54.5608 37.5134 49.7734 37.5137C44.9859 37.5137 41.1036 33.7961 41.1035 29.21C41.1035 24.6237 44.9858 20.9053 49.7734 20.9053ZM6.85938 17.6562C9.21242 17.6563 11.0476 17.8849 12.7314 18.6338C15.9338 20.0593 17.6162 22.8525 17.6162 27.3887C17.6162 31.925 15.662 34.6356 12.6816 36.0947C9.58102 37.6117 4.55718 37.1709 0 37.1709V17.6562H6.85938ZM23.6367 37.1221H18.8008V21.4219H23.6367V37.1221ZM34.1719 25.4814C35.2236 24.1762 36.1687 22.7404 37.207 21.4219H43.3262C41.376 24.0375 39.3227 26.5756 37.3057 29.125C39.4954 31.9536 41.4873 34.4036 43.5732 37.1221H37.75L34.1719 32.3779C32.9671 33.9551 31.8314 35.5765 30.5947 37.1221H24.7227C27.0368 34.0887 28.7147 31.9923 30.9404 29.125C28.983 26.5002 26.8794 24.0446 24.9199 21.4219H31.0391L34.1719 25.4814ZM67.6807 21.2725C70.3536 20.9393 73.2147 21.907 73.9395 25.2939L73.9404 25.293C74.0664 25.8544 74.0034 29.054 74.0029 29.0771L73.9932 29.0742V37.1221H69.1074V29.1494C69.1074 27.4968 69.2051 25.5071 66.7041 25.4561C64.1464 25.5919 64.3194 28.2303 64.3213 28.2578V37.1221H59.5342V21.5195H64.2715V23.3779C64.4463 23.4605 64.5401 23.2336 64.6172 23.1338C65.2823 22.2637 66.0945 21.411 67.6807 21.2725ZM49.7734 25.4102C47.6567 25.4102 45.9404 27.111 45.9404 29.209C45.9406 31.3068 47.6568 33.0068 49.7734 33.0068C51.8899 33.0066 53.6053 31.3067 53.6055 29.209C53.6055 27.1111 51.89 25.4104 49.7734 25.4102ZM12.3857 26.8994C12.3074 23.0695 9.52962 21.4312 5.23047 21.9111C5.17321 21.9194 5.17754 21.9885 5.18164 22.0576V32.6709C6.2959 32.5976 7.29504 32.7707 8.19141 32.6709C11.0257 32.3571 12.4413 29.6363 12.3857 26.8994ZM40.2236 3.91406C45.0111 3.91416 48.8924 7.63173 48.8926 12.2178C48.8926 16.8039 45.0112 20.5224 40.2236 20.5225C35.436 20.5225 31.5537 16.804 31.5537 12.2178C31.5538 7.63167 35.4361 3.91406 40.2236 3.91406ZM21.0605 14.4727C22.7094 14.4727 24.0477 15.7984 24.0479 17.4326C24.0479 19.068 22.7106 20.3926 21.0605 20.3926C19.4106 20.3925 18.0742 19.067 18.0742 17.4326C18.0744 15.7984 19.4117 14.4727 21.0605 14.4727ZM34.5918 4.74414H30.4961V19.9062H25.1172V4.74414H21.0713V0H34.5918V4.74414ZM58.6729 4.1084C61.1145 3.89545 62.7607 5.01019 63.7559 6.45605C64.9926 5.04693 66.7527 3.93009 69.4307 4.1084C72.0756 4.28481 73.7692 6.17282 73.9697 8.90137V19.9062H69.1943V12.0771C69.1944 10.4255 69.6171 8.25188 67.0811 8.37109C64.1887 8.50637 64.4061 11.8438 64.4072 11.8613L64.3975 11.8584V19.9062H59.5117V11.9336C59.5117 10.282 59.9352 8.25402 57.3994 8.37305C54.4993 8.50856 54.7256 11.7178 54.7256 11.7178V19.9062H49.9385V4.30371H54.6758V6.16211C54.8495 6.24464 54.929 6.00356 55.0215 5.91797C55.8809 5.11916 57.0867 4.24697 58.6729 4.1084ZM40.2236 8.41797C38.1069 8.41797 36.3907 10.1189 36.3906 12.2168C36.3906 14.3148 38.1069 16.0156 40.2236 16.0156C42.3403 16.0155 44.0557 14.3147 44.0557 12.2168C44.0556 10.119 42.3402 8.41807 40.2236 8.41797Z" fill="white"/>
</svg>
